# xmcd
#
# Track frame offsets: 
#        150
#        17162
#        36782
#        51551
#        69405
#        85938
#        104204
#        119053
#        133007
#        151853
#        170514
#        188268
#        202627
#        220649
#        241962
#
# Disc length: 3387 seconds
#
# Revision: 0
# Processed by: cddbd v1.5.2PL0 Copyright (c) Steve Scherf et al.
# Submitted via: ExactAudioCopy v0.99pb5
#
DISCID=cc0d390f
DTITLE=Various Artist - Новогодная Тридцатка СD 1
DYEAR=2011
DGENRE=Chanson
TTITLE0=Елена Ваенга/Мосты
TTITLE1=Стас Михайлов/Холодно
TTITLE2=Верка Сердючка/Ёлки
TTITLE3=А.Шевченко и гр."Дежа вю"/Снежинка
TTITLE4=Рада Рай/Где ты
TTITLE5=Анжелика Варум/День опять погас
TTITLE6=гр.Ранетка/Лёд
TTITLE7=Витас/Поцелуй (remix)
TTITLE8=гр.Мираж/Мерцает ночь
TTITLE9=гр.Фристайл/Первый снег
TTITLE10=Алена Сверидова/Невесомое
TTITLE11=Наталия Власова/Зимой
TTITLE12=Гости из будущего/Зима в сердце (live 2007)
TTITLE13=Л.Агутин и В.Пресняков/Аэропорты
TTITLE14=Детский хор "Великан"/Новогодная
EXTD=
EXTT0=
EXTT1=
EXTT2=
EXTT3=
EXTT4=
EXTT5=
EXTT6=
EXTT7=
EXTT8=
EXTT9=
EXTT10=
EXTT11=
EXTT12=
EXTT13=
EXTT14=
PLAYORDER=
